<svg width="16" height="16" viewBox="0 0 16 16" fill="none" xmlns="http://www.w3.org/2000/svg">
<path d="M11.8993 7.87202L11.428 7.40069L4.828 14.0007H2V11.172L9.542 3.62935L13.3133 7.40069C13.4383 7.5257 13.5085 7.69524 13.5085 7.87202C13.5085 8.0488 13.4383 8.21833 13.3133 8.34335L8.6 13.0574L7.65667 12.1147L11.8993 7.87202ZM10.4853 6.45802L9.542 5.51535L3.33333 11.724V12.6674H4.276L10.4853 6.45802ZM12.3707 1.74402L14.2567 3.62935C14.3816 3.75437 14.4519 3.92391 14.4519 4.10069C14.4519 4.27746 14.3816 4.447 14.2567 4.57202L13.3133 5.51535L10.4853 2.68669L11.428 1.74402C11.553 1.61904 11.7226 1.54883 11.8993 1.54883C12.0761 1.54883 12.2456 1.61904 12.3707 1.74402Z" fill="#868686"/>
</svg>
