<svg width="46" height="46" viewBox="0 0 46 46" fill="none" xmlns="http://www.w3.org/2000/svg">
<path d="M32.4464 21.3571H24.6429V13.5536C24.6429 13.3277 24.458 13.1429 24.2321 13.1429H21.7679C21.542 13.1429 21.3571 13.3277 21.3571 13.5536V21.3571H13.5536C13.3277 21.3571 13.1429 21.542 13.1429 21.7679V24.2321C13.1429 24.458 13.3277 24.6429 13.5536 24.6429H21.3571V32.4464C21.3571 32.6723 21.542 32.8571 21.7679 32.8571H24.2321C24.458 32.8571 24.6429 32.6723 24.6429 32.4464V24.6429H32.4464C32.6723 24.6429 32.8571 24.458 32.8571 24.2321V21.7679C32.8571 21.542 32.6723 21.3571 32.4464 21.3571Z" fill="#BCBCBC"/>
<path d="M23 0C10.2987 0 0 10.2987 0 23C0 35.7013 10.2987 46 23 46C35.7013 46 46 35.7013 46 23C46 10.2987 35.7013 0 23 0ZM23 42.0982C12.4549 42.0982 3.90179 33.5451 3.90179 23C3.90179 12.4549 12.4549 3.90179 23 3.90179C33.5451 3.90179 42.0982 12.4549 42.0982 23C42.0982 33.5451 33.5451 42.0982 23 42.0982Z" fill="#BCBCBC"/>
</svg>
