<svg width="46" height="40" viewBox="0 0 46 40" fill="none" xmlns="http://www.w3.org/2000/svg">
<path d="M0.777771 6.11122C0.777771 4.63779 1.36309 3.22472 2.40496 2.18285C3.44682 1.14098 4.8599 0.555664 6.33333 0.555664H39.6667C41.1401 0.555664 42.5532 1.14098 43.595 2.18285C44.6369 3.22472 45.2222 4.63779 45.2222 6.11122V33.889C45.2222 35.3624 44.6369 36.7755 43.595 37.8174C42.5532 38.8592 41.1401 39.4446 39.6667 39.4446H6.33333C4.8599 39.4446 3.44682 38.8592 2.40496 37.8174C1.36309 36.7755 0.777771 35.3624 0.777771 33.889V6.11122ZM3.55555 31.1112V33.889C3.55555 34.6257 3.84821 35.3322 4.36914 35.8532C4.89008 36.3741 5.59661 36.6668 6.33333 36.6668H39.6667C40.4034 36.6668 41.1099 36.3741 41.6308 35.8532C42.1518 35.3322 42.4444 34.6257 42.4444 33.889V24.1668L31.9528 18.7584C31.6923 18.628 31.3973 18.5827 31.1097 18.629C30.8221 18.6754 30.5563 18.811 30.35 19.0168L20.0444 29.3223L12.6555 24.4001C12.3888 24.2225 12.0688 24.1426 11.7498 24.174C11.4309 24.2054 11.1326 24.3461 10.9055 24.5723L3.55555 31.1112ZM17.4444 13.0557C17.4444 11.9506 17.0055 10.8908 16.224 10.1094C15.4426 9.32798 14.3828 8.889 13.2778 8.889C12.1727 8.889 11.1129 9.32798 10.3315 10.1094C9.55009 10.8908 9.1111 11.9506 9.1111 13.0557C9.1111 14.1607 9.55009 15.2205 10.3315 16.0019C11.1129 16.7833 12.1727 17.2223 13.2778 17.2223C14.3828 17.2223 15.4426 16.7833 16.224 16.0019C17.0055 15.2205 17.4444 14.1607 17.4444 13.0557Z" fill="white"/>
</svg>
