<svg width="81" height="70" viewBox="0 0 81 70" fill="none" xmlns="http://www.w3.org/2000/svg">
<path d="M0.0100098 10C0.0100098 7.34784 1.06358 4.8043 2.93894 2.92893C4.81431 1.05357 7.35784 0 10.01 0H70.01C72.6622 0 75.2057 1.05357 77.0811 2.92893C78.9564 4.8043 80.01 7.34784 80.01 10V60C80.01 62.6522 78.9564 65.1957 77.0811 67.0711C75.2057 68.9464 72.6622 70 70.01 70H10.01C7.35784 70 4.81431 68.9464 2.93894 67.0711C1.06358 65.1957 0.0100098 62.6522 0.0100098 60V10ZM5.01001 55V60C5.01001 61.3261 5.53679 62.5979 6.47448 63.5355C7.41216 64.4732 8.68393 65 10.01 65H70.01C71.3361 65 72.6079 64.4732 73.5455 63.5355C74.4832 62.5979 75.01 61.3261 75.01 60V42.5L56.125 32.765C55.6561 32.5301 55.1252 32.4486 54.6075 32.5321C54.0898 32.6155 53.6114 32.8597 53.24 33.23L34.69 51.78L21.39 42.92C20.9098 42.6003 20.3338 42.4565 19.7597 42.513C19.1856 42.5695 18.6487 42.8228 18.24 43.23L5.01001 55ZM30.01 22.5C30.01 20.5109 29.2198 18.6032 27.8133 17.1967C26.4068 15.7902 24.4991 15 22.51 15C20.5209 15 18.6132 15.7902 17.2067 17.1967C15.8002 18.6032 15.01 20.5109 15.01 22.5C15.01 24.4891 15.8002 26.3968 17.2067 27.8033C18.6132 29.2098 20.5209 30 22.51 30C24.4991 30 26.4068 29.2098 27.8133 27.8033C29.2198 26.3968 30.01 24.4891 30.01 22.5Z" fill="white"/>
</svg>
