<svg width="37" height="33" viewBox="0 0 37 33" fill="none" xmlns="http://www.w3.org/2000/svg">
<path d="M18.3332 24.2C21.5733 24.2 24.1999 21.5734 24.1999 18.3333C24.1999 15.0932 21.5733 12.4666 18.3332 12.4666C15.0931 12.4666 12.4666 15.0932 12.4666 18.3333C12.4666 21.5734 15.0931 24.2 18.3332 24.2Z" fill="#7D7D7D"/>
<path d="M12.8336 0L9.47858 3.66667H3.66691C1.65024 3.66667 0.000244141 5.31667 0.000244141 7.33333V29.3333C0.000244141 31.35 1.65024 33 3.66691 33H33.0002C35.0169 33 36.6669 31.35 36.6669 29.3333V7.33333C36.6669 5.31667 35.0169 3.66667 33.0002 3.66667H27.1886L23.8336 0H12.8336ZM18.3336 27.5C13.2736 27.5 9.16691 23.3933 9.16691 18.3333C9.16691 13.2733 13.2736 9.16667 18.3336 9.16667C23.3936 9.16667 27.5002 13.2733 27.5002 18.3333C27.5002 23.3933 23.3936 27.5 18.3336 27.5Z" fill="#7D7D7D"/>
</svg>
