<svg width="18" height="18" viewBox="0 0 18 18" fill="none" xmlns="http://www.w3.org/2000/svg">
<g clip-path="url(#clip0_193_2504)">
<path d="M9 0.28125C4.18479 0.28125 0.28125 4.18475 0.28125 9C0.28125 13.8152 4.18479 17.7188 9 17.7188C13.8152 17.7188 17.7188 13.8152 17.7188 9C17.7188 4.18479 13.8152 0.28125 9 0.28125ZM13.5741 4.42589C15.875 6.7268 16.035 10.2436 14.301 12.71L5.28996 3.699C7.75807 1.96383 11.2745 2.12628 13.5741 4.42589ZM4.42589 13.5741C2.12498 11.2732 1.96495 7.75642 3.69896 5.29L12.71 14.301C10.242 16.0362 6.72553 15.8738 4.42589 13.5741V13.5741Z" fill="#868686"/>
</g>
<defs>
<clipPath id="clip0_193_2504">
<rect width="18" height="18" fill="white"/>
</clipPath>
</defs>
</svg>
