<svg width="286" height="286" viewBox="0 0 286 286" fill="none" xmlns="http://www.w3.org/2000/svg">
<path d="M89.375 53.6468V71.5218H259.188V106.906L239.357 169.834H83.7511L61.4073 8.9375H8.9375V26.8125H45.8427L68.1864 187.709H252.466L277.062 109.655V53.6468H89.375ZM98.8622 205.755C89.384 205.765 80.2971 209.535 73.595 216.238C66.8929 222.94 63.1229 232.026 63.1122 241.505C63.1122 250.986 66.8787 260.079 73.5831 266.784C80.2875 273.488 89.3807 277.255 98.8622 277.255C108.344 277.255 117.437 273.488 124.141 266.784C130.846 260.079 134.612 250.986 134.612 241.505C134.602 232.026 130.832 222.939 124.129 216.237C117.427 209.535 108.34 205.765 98.8622 205.755ZM98.8622 259.38C95.3268 259.38 91.8709 258.331 88.9313 256.367C85.9918 254.403 83.7007 251.611 82.3478 248.345C80.9949 245.079 80.6409 241.485 81.3306 238.017C82.0203 234.55 83.7228 231.365 86.2226 228.865C88.7225 226.365 91.9075 224.663 95.3749 223.973C98.8423 223.283 102.436 223.637 105.703 224.99C108.969 226.343 111.761 228.634 113.725 231.574C115.689 234.513 116.737 237.969 116.737 241.505C116.732 246.244 114.846 250.787 111.495 254.138C108.144 257.489 103.601 259.374 98.8622 259.38ZM223.987 205.755C214.509 205.765 205.422 209.535 198.72 216.238C192.018 222.94 188.248 232.026 188.237 241.505C188.237 250.986 192.004 260.079 198.708 266.784C205.413 273.488 214.506 277.255 223.987 277.255C233.469 277.255 242.562 273.488 249.266 266.784C255.971 260.079 259.737 250.986 259.737 241.505C259.727 232.026 255.957 222.939 249.254 216.237C242.552 209.535 233.465 205.765 223.987 205.755ZM223.987 259.38C220.452 259.38 216.996 258.331 214.056 256.367C211.117 254.403 208.826 251.611 207.473 248.345C206.12 245.079 205.766 241.485 206.456 238.017C207.145 234.55 208.848 231.365 211.348 228.865C213.847 226.365 217.033 224.663 220.5 223.973C223.967 223.283 227.561 223.637 230.828 224.99C234.094 226.343 236.886 228.634 238.85 231.574C240.814 234.513 241.862 237.969 241.862 241.505C241.857 246.244 239.971 250.787 236.62 254.138C233.269 257.489 228.726 259.374 223.987 259.38Z" fill="black" fill-opacity="0.1"/>
</svg>
