<svg width="54" height="43" viewBox="0 0 54 43" fill="none" xmlns="http://www.w3.org/2000/svg">
<path d="M52.0714 0H1.92857C0.86183 0 0 0.873437 0 1.95455V41.0455C0 42.1266 0.86183 43 1.92857 43H52.0714C53.1382 43 54 42.1266 54 41.0455V1.95455C54 0.873437 53.1382 0 52.0714 0ZM16.5134 8.79545C18.6408 8.79545 20.3705 10.5484 20.3705 12.7045C20.3705 14.8607 18.6408 16.6136 16.5134 16.6136C14.3859 16.6136 12.6562 14.8607 12.6562 12.7045C12.6562 10.5484 14.3859 8.79545 16.5134 8.79545ZM47.4851 35.4933C47.3973 35.5681 47.2863 35.6091 47.1717 35.6094H6.82232C6.55714 35.6094 6.34018 35.3895 6.34018 35.1207C6.34018 35.0047 6.38237 34.8947 6.45469 34.8031L16.7183 22.4651C16.8871 22.2574 17.1944 22.233 17.3993 22.404C17.4174 22.4223 17.4415 22.4406 17.4596 22.4651L23.4502 29.6724L32.9786 18.22C33.1473 18.0124 33.4547 17.9879 33.6596 18.1589C33.6777 18.1773 33.7018 18.1956 33.7199 18.22L47.5574 34.8092C47.7141 35.0108 47.69 35.3223 47.4851 35.4933Z" fill="black" fill-opacity="0.1"/>
</svg>
