<svg width="22" height="20" viewBox="0 0 22 20" fill="none" xmlns="http://www.w3.org/2000/svg">
<path d="M4.33325 5H18.1233C18.4027 5.00001 18.679 5.05857 18.9344 5.17191C19.1898 5.28524 19.4186 5.45083 19.6061 5.65801C19.7936 5.86519 19.9356 6.10936 20.0229 6.37478C20.1103 6.64019 20.1411 6.92097 20.1133 7.199L19.5133 13.199C19.4639 13.6925 19.2329 14.1501 18.8652 14.4829C18.4975 14.8157 18.0192 15 17.5233 15H7.97325C7.51072 15.0002 7.06243 14.84 6.7047 14.5469C6.34696 14.2537 6.10191 13.8456 6.01125 13.392L4.33325 5ZM4.33325 5L3.52325 1.757C3.46908 1.54075 3.3442 1.34881 3.16846 1.21166C2.99272 1.0745 2.77618 1.00001 2.55325 1H1.33325M7.33325 19H9.33325M15.3333 19H17.3333" stroke="#868686" stroke-width="2" stroke-linecap="round" stroke-linejoin="round"/>
</svg>
