<svg width="12" height="8" viewBox="0 0 12 8" fill="none" xmlns="http://www.w3.org/2000/svg">
<path d="M5.68292 7.15977L0.565835 0.701176C0.552358 0.6843 0.543982 0.664018 0.54167 0.64266C0.539358 0.621302 0.543203 0.599735 0.552764 0.580434C0.562326 0.561134 0.577215 0.544884 0.595723 0.533549C0.61423 0.522215 0.635606 0.516257 0.657393 0.516359L1.7808 0.516359C1.85201 0.516359 1.92031 0.549311 1.96391 0.603753L6.04915 5.76146L10.1344 0.603754C10.178 0.547879 10.2463 0.516359 10.3175 0.516359L11.4409 0.516359C11.5383 0.516359 11.5921 0.626677 11.5325 0.701177L6.41538 7.15977C6.37195 7.21466 6.31639 7.25907 6.25293 7.28961C6.18946 7.32015 6.11977 7.33603 6.04915 7.33603C5.97853 7.33603 5.90884 7.32015 5.84538 7.28961C5.78192 7.25907 5.72635 7.21466 5.68292 7.15977Z" fill="#8F8F8F"/>
</svg>
