<svg width="13" height="21" viewBox="0 0 13 21" fill="none" xmlns="http://www.w3.org/2000/svg">
<path d="M12.664 9.80175L0.352311 0.0473123C0.32014 0.0216205 0.281478 0.0056542 0.240764 0.00124682C0.200051 -0.00316056 0.158938 0.00416977 0.122147 0.0223961C0.0853552 0.0406224 0.0543782 0.0690056 0.0327723 0.104286C0.0111665 0.139566 -0.000191755 0.180312 2.4493e-06 0.221845V2.36333C2.4493e-06 2.49908 0.0628173 2.62929 0.166598 2.7124L9.99847 10.4999L0.166598 18.2874C0.0600863 18.3705 2.4493e-06 18.5007 2.4493e-06 18.6364V20.7779C2.4493e-06 20.9635 0.210295 21.066 0.352311 20.9525L12.664 11.198C12.7686 11.1152 12.8533 11.0093 12.9115 10.8883C12.9697 10.7674 13 10.6345 13 10.4999C13 10.3653 12.9697 10.2324 12.9115 10.1114C12.8533 9.99047 12.7686 9.88455 12.664 9.80175Z" fill="#8F8F8F"/>
</svg>
