<svg width="162" height="127" viewBox="0 0 162 127" fill="none" xmlns="http://www.w3.org/2000/svg">
<path d="M156.214 0H5.78571C2.58549 0 0 2.57969 0 5.77273V121.227C0 124.42 2.58549 127 5.78571 127H156.214C159.415 127 162 124.42 162 121.227V5.77273C162 2.57969 159.415 0 156.214 0ZM49.5402 25.9773C55.9225 25.9773 61.1116 31.1547 61.1116 37.5227C61.1116 43.8908 55.9225 49.0682 49.5402 49.0682C43.1578 49.0682 37.9688 43.8908 37.9688 37.5227C37.9688 31.1547 43.1578 25.9773 49.5402 25.9773ZM142.455 104.829C142.192 105.05 141.859 105.171 141.515 105.172H20.467C19.6714 105.172 19.0205 104.522 19.0205 103.729C19.0205 103.386 19.1471 103.061 19.3641 102.791L50.1549 66.3503C50.6612 65.7369 51.5833 65.6648 52.198 66.1699C52.2522 66.224 52.3246 66.2781 52.3788 66.3503L70.3507 87.6372L98.9357 53.8126C99.442 53.1993 100.364 53.1271 100.979 53.6322C101.033 53.6864 101.105 53.7405 101.16 53.8126L142.672 102.809C143.142 103.404 143.07 104.324 142.455 104.829Z" fill="black" fill-opacity="0.1"/>
</svg>
