<svg width="8" height="9" viewBox="0 0 8 9" fill="none" xmlns="http://www.w3.org/2000/svg">
<path d="M1.38313 1.07614L3.90968 3.60269L6.42313 1.08923C6.47865 1.03014 6.54553 0.982865 6.61977 0.950248C6.694 0.91763 6.77405 0.90034 6.85513 0.899414C7.02873 0.899414 7.19521 0.968375 7.31797 1.09113C7.44072 1.21388 7.50968 1.38036 7.50968 1.55396C7.5112 1.63421 7.49631 1.71392 7.46592 1.78821C7.43553 1.8625 7.39028 1.92979 7.33295 1.98596L4.78677 4.49941L7.33295 7.0456C7.44083 7.15114 7.50409 7.29405 7.50968 7.44487C7.50968 7.61846 7.44072 7.78495 7.31797 7.9077C7.19521 8.03045 7.02873 8.09941 6.85513 8.09941C6.77171 8.10288 6.68849 8.08895 6.61074 8.05853C6.53299 8.0281 6.46241 7.98184 6.4035 7.92269L3.90968 5.39614L1.38968 7.91614C1.33437 7.97327 1.2683 8.01887 1.19528 8.05033C1.12226 8.08178 1.04373 8.09847 0.964222 8.09941C0.790626 8.09941 0.62414 8.03045 0.501389 7.9077C0.378638 7.78495 0.309677 7.61846 0.309677 7.44487C0.308151 7.36462 0.32304 7.28491 0.35343 7.21062C0.38382 7.13633 0.429071 7.06904 0.486404 7.01287L3.03259 4.49941L0.486404 1.95323C0.378525 1.84769 0.315266 1.70477 0.309677 1.55396C0.309677 1.38036 0.378638 1.21388 0.501389 1.09113C0.62414 0.968375 0.790626 0.899414 0.964222 0.899414C1.12131 0.901378 1.27186 0.964869 1.38313 1.07614Z" fill="#696969"/>
</svg>
