<svg width="23" height="17" viewBox="0 0 23 17" fill="none" xmlns="http://www.w3.org/2000/svg">
<path d="M11.5001 2.77083C13.4154 2.76447 15.2937 3.29873 16.919 4.31221C18.5442 5.3257 19.8505 6.77725 20.6876 8.5C18.9688 12.0104 15.4584 14.2292 11.5001 14.2292C7.54175 14.2292 4.03133 12.0104 2.31258 8.5C3.14968 6.77725 4.45595 5.3257 6.08121 4.31221C7.70646 3.29873 9.58473 2.76447 11.5001 2.77083ZM11.5001 0.6875C6.29175 0.6875 1.84383 3.92708 0.041748 8.5C1.84383 13.0729 6.29175 16.3125 11.5001 16.3125C16.7084 16.3125 21.1563 13.0729 22.9584 8.5C21.1563 3.92708 16.7084 0.6875 11.5001 0.6875ZM11.5001 5.89583C12.1908 5.89583 12.8531 6.1702 13.3415 6.65858C13.8299 7.14695 14.1042 7.80933 14.1042 8.5C14.1042 9.19067 13.8299 9.85305 13.3415 10.3414C12.8531 10.8298 12.1908 11.1042 11.5001 11.1042C10.8094 11.1042 10.147 10.8298 9.65866 10.3414C9.17028 9.85305 8.89592 9.19067 8.89592 8.5C8.89592 7.80933 9.17028 7.14695 9.65866 6.65858C10.147 6.1702 10.8094 5.89583 11.5001 5.89583ZM11.5001 3.8125C8.91675 3.8125 6.81258 5.91667 6.81258 8.5C6.81258 11.0833 8.91675 13.1875 11.5001 13.1875C14.0834 13.1875 16.1876 11.0833 16.1876 8.5C16.1876 5.91667 14.0834 3.8125 11.5001 3.8125Z" fill="#868686"/>
</svg>
