<svg width="23" height="17" viewBox="0 0 23 17" fill="none" xmlns="http://www.w3.org/2000/svg">
<path d="M21.1427 7.41879C21.6364 8.06462 21.6364 8.9365 21.1427 9.58129C19.5875 11.6115 15.8562 15.7917 11.5 15.7917C7.14372 15.7917 3.41247 11.6115 1.85726 9.58129C1.61704 9.27205 1.48663 8.89162 1.48663 8.50004C1.48663 8.10846 1.61704 7.72803 1.85726 7.41879C3.41247 5.38858 7.14372 1.20837 11.5 1.20837C15.8562 1.20837 19.5875 5.38858 21.1427 7.41879V7.41879Z" stroke="black" stroke-width="2" stroke-linecap="round" stroke-linejoin="round"/>
<path d="M11.5 11.625C13.2259 11.625 14.625 10.2259 14.625 8.5C14.625 6.77411 13.2259 5.375 11.5 5.375C9.77411 5.375 8.375 6.77411 8.375 8.5C8.375 10.2259 9.77411 11.625 11.5 11.625Z" stroke="black" stroke-width="2" stroke-linecap="round" stroke-linejoin="round"/>
</svg>
