<svg width="16" height="16" viewBox="0 0 16 16" fill="none" xmlns="http://www.w3.org/2000/svg">
<path d="M2 3.33331H4.66667M14 3.33331H7.33333M2 7.99998H10M14 7.99998H12.6667M2 12.6666H3.33333M14 12.6666H6" stroke="#272727" stroke-width="1.6" stroke-linecap="round"/>
<path d="M5.99935 4.66667C6.73573 4.66667 7.33268 4.06971 7.33268 3.33333C7.33268 2.59695 6.73573 2 5.99935 2C5.26297 2 4.66602 2.59695 4.66602 3.33333C4.66602 4.06971 5.26297 4.66667 5.99935 4.66667Z" stroke="#272727" stroke-width="1.6" stroke-linecap="round"/>
<path d="M11.3333 9.33335C12.0697 9.33335 12.6667 8.7364 12.6667 8.00002C12.6667 7.26364 12.0697 6.66669 11.3333 6.66669C10.597 6.66669 10 7.26364 10 8.00002C10 8.7364 10.597 9.33335 11.3333 9.33335Z" stroke="#272727" stroke-width="1.6" stroke-linecap="round"/>
<path d="M4.66732 14C5.4037 14 6.00065 13.403 6.00065 12.6666C6.00065 11.9303 5.4037 11.3333 4.66732 11.3333C3.93094 11.3333 3.33398 11.9303 3.33398 12.6666C3.33398 13.403 3.93094 14 4.66732 14Z" stroke="#272727" stroke-width="1.6" stroke-linecap="round"/>
</svg>
