<svg width="70" height="70" viewBox="0 0 70 70" fill="none" xmlns="http://www.w3.org/2000/svg">
<g clip-path="url(#clip0_357_5991)">
<path d="M69.3601 66.243L48.1051 44.858C52.0667 40.1133 54.4543 34.0091 54.4543 27.3438C54.4543 12.2423 42.212 0 27.1106 0C12.0092 0 -0.233154 12.2423 -0.233154 27.3438C-0.233154 42.4452 12.0092 54.6875 27.1106 54.6875C33.9717 54.6875 40.2389 52.1544 45.0404 47.9784L66.2658 69.3372C67.12 70.1915 68.5058 70.1915 69.36 69.3372C70.2132 68.483 70.2132 67.0983 69.36 66.243H69.3601ZM27.1106 50.3486C14.4056 50.3486 4.10575 40.0488 4.10575 27.3438C4.10575 14.6388 14.4056 4.33891 27.1106 4.33891C39.8156 4.33891 50.1154 14.6388 50.1154 27.3438C50.1154 40.0488 39.8156 50.3486 27.1106 50.3486Z" fill="#464646"/>
</g>
<defs>
<clipPath id="clip0_357_5991">
<rect width="70" height="70" fill="white"/>
</clipPath>
</defs>
</svg>
