<svg width="13" height="13" viewBox="0 0 13 13" fill="none" xmlns="http://www.w3.org/2000/svg">
<g clip-path="url(#clip0_28_1016)">
<path d="M10.967 0.64592L11.088 0.524857C11.1792 0.43379 11.2873 0.361561 11.4064 0.312296C11.5254 0.263031 11.653 0.237694 11.7818 0.237732C11.9106 0.23777 12.0382 0.263181 12.1572 0.312516C12.2762 0.361851 12.3843 0.434142 12.4754 0.525263C12.5664 0.616384 12.6387 0.72455 12.6879 0.843585C12.7372 0.96262 12.7625 1.09019 12.7625 1.21902C12.7625 1.34785 12.7371 1.4754 12.6877 1.59441C12.6384 1.71342 12.5661 1.82154 12.475 1.91261L12.3539 2.03286C12.561 2.26512 12.6714 2.5678 12.6625 2.87886C12.6536 3.18991 12.526 3.48577 12.306 3.70579L3.94373 12.0689C3.89145 12.1209 3.82601 12.1577 3.75441 12.1753L0.504413 12.9878C0.436401 13.0047 0.365163 13.0038 0.297626 12.985C0.230089 12.9663 0.168549 12.9304 0.118988 12.8808C0.0694272 12.8313 0.033532 12.7697 0.0147913 12.7022C-0.0039493 12.6347 -0.00489781 12.5634 0.012038 12.4954L0.824538 9.24542C0.842315 9.17412 0.879101 9.10897 0.930976 9.05692L8.7651 1.22279C8.68675 1.16765 8.59143 1.14197 8.49598 1.1503C8.40053 1.15862 8.3111 1.20042 8.24347 1.26829L5.56873 3.94386C5.53095 3.98163 5.48611 4.01159 5.43676 4.03203C5.38741 4.05247 5.33452 4.063 5.2811 4.063C5.22768 4.063 5.17479 4.05247 5.12544 4.03203C5.07609 4.01159 5.03125 3.98163 4.99348 3.94386C4.9557 3.90609 4.92574 3.86124 4.9053 3.81189C4.88486 3.76254 4.87434 3.70965 4.87434 3.65623C4.87434 3.60282 4.88486 3.54992 4.9053 3.50057C4.92574 3.45122 4.9557 3.40638 4.99348 3.36861L7.66985 0.693857C7.89002 0.473682 8.18611 0.346124 8.49735 0.337361C8.8086 0.328598 9.11139 0.439294 9.3436 0.646732C9.56685 0.447214 9.85572 0.336854 10.1551 0.336705C10.4545 0.336555 10.7435 0.446625 10.967 0.64592ZM10.4437 1.26829C10.3675 1.19213 10.2642 1.14935 10.1565 1.14935C10.0488 1.14935 9.94547 1.19213 9.86929 1.26829L1.58423 9.55173L0.963476 12.0355L3.44729 11.4148L11.7324 3.13136C11.7702 3.09362 11.8002 3.04879 11.8207 2.99943C11.8412 2.95008 11.8517 2.89717 11.8517 2.84373C11.8517 2.7903 11.8412 2.73739 11.8207 2.68803C11.8002 2.63867 11.7702 2.59384 11.7324 2.55611L10.4445 1.26829H10.4437Z" fill="black"/>
</g>
<defs>
<clipPath id="clip0_28_1016">
<rect width="13" height="13" fill="white"/>
</clipPath>
</defs>
</svg>
