<svg width="14" height="14" viewBox="0 0 14 14" fill="none" xmlns="http://www.w3.org/2000/svg">
<path d="M1.01855 3.1812H13.1941M5.88877 6.22508V9.26897M8.32388 6.22508V9.26897M2.23611 3.1812H11.9765L11.0147 11.838C10.9817 12.1359 10.84 12.4112 10.6167 12.6112C10.3934 12.8111 10.1042 12.9217 9.80442 12.9216H4.40822C4.10848 12.9217 3.81927 12.8111 3.59596 12.6112C3.37265 12.4112 3.23095 12.1359 3.19798 11.838L2.23611 3.1812ZM4.27247 1.44436C4.37094 1.23553 4.52676 1.059 4.72175 0.935369C4.91674 0.811735 5.14286 0.746091 5.37374 0.746094H8.8389C9.06989 0.745976 9.29614 0.811565 9.49125 0.935206C9.68636 1.05885 9.84227 1.23544 9.94079 1.44436L10.759 3.1812H3.45366L4.27247 1.44436Z" stroke="#868686" stroke-width="1.46106" stroke-linecap="round" stroke-linejoin="round"/>
</svg>
