<svg width="11" height="11" viewBox="0 0 11 11" fill="none" xmlns="http://www.w3.org/2000/svg">
<path d="M10.079 2.41485C9.88546 2.61467 9.69765 2.80861 9.69196 3.00255C9.67488 3.19062 9.86838 3.38456 10.0505 3.56675C10.3237 3.8606 10.5912 4.12507 10.5798 4.41304C10.5684 4.70102 10.2781 5.00074 9.9879 5.2946L7.63747 7.72769L6.82933 6.89315L9.24805 4.40129L8.70171 3.83709L7.89357 4.66575L5.7594 2.46187L7.94479 0.210966C8.16674 -0.0182385 8.53666 -0.0182385 8.74723 0.210966L10.079 1.58619C10.3009 1.80364 10.3009 2.18565 10.079 2.41485ZM0 8.4153L5.4407 2.79098L7.57487 4.99487L2.13417 10.6192H0V8.4153Z" fill="#868686"/>
</svg>
