<svg width="15" height="11" viewBox="0 0 15 11" fill="none" xmlns="http://www.w3.org/2000/svg">
<path d="M7.35506 1.8712C8.56901 1.86716 9.75946 2.20578 10.7895 2.84812C11.8196 3.49047 12.6475 4.41046 13.1781 5.50234C12.0888 7.72724 9.86385 9.13348 7.35506 9.13348C4.84627 9.13348 2.62137 7.72724 1.53203 5.50234C2.06258 4.41046 2.89049 3.49047 3.92058 2.84812C4.95067 2.20578 6.14111 1.86716 7.35506 1.8712ZM7.35506 0.550781C4.05402 0.550781 1.23493 2.60403 0.0927734 5.50234C1.23493 8.40065 4.05402 10.4539 7.35506 10.4539C10.6561 10.4539 13.4752 8.40065 14.6173 5.50234C13.4752 2.60403 10.6561 0.550781 7.35506 0.550781ZM7.35506 3.85182C7.79281 3.85182 8.21262 4.02571 8.52215 4.33525C8.83169 4.64478 9.00558 5.0646 9.00558 5.50234C9.00558 5.94009 8.83169 6.3599 8.52215 6.66943C8.21262 6.97897 7.79281 7.15286 7.35506 7.15286C6.91732 7.15286 6.4975 6.97897 6.18797 6.66943C5.87844 6.3599 5.70454 5.94009 5.70454 5.50234C5.70454 5.0646 5.87844 4.64478 6.18797 4.33525C6.4975 4.02571 6.91732 3.85182 7.35506 3.85182ZM7.35506 2.53141C5.71775 2.53141 4.38413 3.86503 4.38413 5.50234C4.38413 7.13966 5.71775 8.47328 7.35506 8.47328C8.99238 8.47328 10.326 7.13966 10.326 5.50234C10.326 3.86503 8.99238 2.53141 7.35506 2.53141Z" fill="#868686"/>
</svg>
