<svg width="26" height="26" viewBox="0 0 26 26" fill="none" xmlns="http://www.w3.org/2000/svg">
<path d="M11.718 16.508V15.662C11.718 15.158 11.82 14.702 12.024 14.294C12.24 13.886 12.492 13.544 12.78 13.268C13.08 12.98 13.38 12.71 13.68 12.458C13.98 12.194 14.232 11.894 14.436 11.558C14.652 11.222 14.76 10.856 14.76 10.46C14.76 9.956 14.562 9.536 14.166 9.2C13.782 8.852 13.296 8.678 12.708 8.678C11.976 8.678 11.298 8.93 10.674 9.434L9.702 8.192C10.566 7.424 11.61 7.04 12.834 7.04C13.878 7.04 14.766 7.346 15.498 7.958C16.23 8.57 16.596 9.362 16.596 10.334C16.596 10.886 16.488 11.384 16.272 11.828C16.056 12.26 15.792 12.626 15.48 12.926C15.168 13.214 14.85 13.496 14.526 13.772C14.214 14.036 13.95 14.336 13.734 14.672C13.518 15.008 13.41 15.374 13.41 15.77V16.508H11.718ZM11.664 20V18.218H13.464V20H11.664Z" fill="#ACACAC"/>
<circle cx="13" cy="13" r="12.5" stroke="#ACACAC"/>
</svg>
