<svg width="21" height="21" viewBox="0 0 21 21" fill="none" xmlns="http://www.w3.org/2000/svg">
<path d="M4.50004 13.0002C5.37469 12.9976 6.21626 12.6656 6.85704 12.0702L13.117 15.6472C12.9073 16.4668 12.9998 17.3345 13.3775 18.0915C13.7552 18.8486 14.393 19.4442 15.174 19.7694C15.955 20.0946 16.827 20.1277 17.6304 19.8625C18.4338 19.5974 19.1148 19.0517 19.5488 18.3255C19.9827 17.5992 20.1406 16.741 19.9935 15.9079C19.8464 15.0747 19.4042 14.3225 18.7478 13.7887C18.0914 13.255 17.2647 12.9756 16.419 13.0015C15.5734 13.0275 14.7655 13.3572 14.143 13.9302L7.88304 10.3532C7.94904 10.1032 7.98504 9.84421 7.99104 9.58521L14.141 6.07021C14.7332 6.60898 15.4927 6.92771 16.292 6.97293C17.0913 7.01814 17.8818 6.78708 18.531 6.31852C19.1802 5.84997 19.6484 5.17241 19.8572 4.39953C20.0661 3.62665 20.0027 2.80546 19.6779 2.07374C19.353 1.34202 18.7864 0.744282 18.0731 0.380804C17.3597 0.0173272 16.5431 -0.0897734 15.7602 0.0774701C14.9772 0.244714 14.2756 0.676126 13.7731 1.29933C13.2705 1.92254 12.9976 2.69962 13 3.50021C13.004 3.78821 13.043 4.07521 13.117 4.35321L7.43304 7.60021C7.10341 7.09027 6.6468 6.67486 6.10805 6.39478C5.56931 6.11471 4.96697 5.97961 4.36021 6.00276C3.75346 6.02591 3.16316 6.20651 2.64732 6.52682C2.13148 6.84713 1.70785 7.29613 1.41804 7.8297C1.12823 8.36327 0.98222 8.96306 0.994351 9.57014C1.00648 10.1772 1.17634 10.7707 1.48723 11.2923C1.79812 11.8138 2.23936 12.2455 2.76758 12.545C3.2958 12.8444 3.89284 13.0013 4.50004 13.0002Z" fill="black"/>
</svg>
