<svg width="316" height="249" viewBox="0 0 316 249" fill="none" xmlns="http://www.w3.org/2000/svg">
<path d="M304.714 0H11.2857C5.0433 0 0 5.05781 0 11.3182V237.682C0 243.942 5.0433 249 11.2857 249H304.714C310.957 249 316 243.942 316 237.682V11.3182C316 5.05781 310.957 0 304.714 0ZM96.6339 50.9318C109.083 50.9318 119.205 61.0828 119.205 73.5682C119.205 86.0536 109.083 96.2045 96.6339 96.2045C84.1844 96.2045 74.0625 86.0536 74.0625 73.5682C74.0625 61.0828 84.1844 50.9318 96.6339 50.9318ZM277.875 205.531C277.362 205.964 276.712 206.202 276.042 206.203H39.9232C38.3714 206.203 37.1018 204.93 37.1018 203.374C37.1018 202.702 37.3487 202.065 37.7719 201.534L97.833 130.088C98.8205 128.886 100.619 128.744 101.818 129.735C101.924 129.841 102.065 129.947 102.171 130.088L137.227 171.824L192.986 105.507C193.973 104.304 195.772 104.163 196.971 105.153C197.077 105.259 197.218 105.365 197.324 105.507L278.299 201.57C279.216 202.737 279.075 204.541 277.875 205.531Z" fill="black" fill-opacity="0.1"/>
</svg>
