<svg width="21" height="13" viewBox="0 0 21 13" fill="none" xmlns="http://www.w3.org/2000/svg">
<path d="M11.1982 12.664L20.9527 0.352311C20.9784 0.32014 20.9943 0.281478 20.9988 0.240764C21.0032 0.200051 20.9958 0.158938 20.9776 0.122147C20.9594 0.0853552 20.931 0.0543782 20.8957 0.0327723C20.8604 0.0111665 20.8197 -0.000191763 20.7782 2.4396e-06L18.6367 2.346e-06C18.5009 2.34006e-06 18.3707 0.0628172 18.2876 0.166598L10.5001 9.99847L2.71263 0.166597C2.62952 0.0600855 2.49931 1.64061e-06 2.36356 1.63468e-06L0.222076 1.54107e-06C0.0364609 1.53296e-06 -0.06604 0.210294 0.0475445 0.35231L9.80198 12.664C9.88478 12.7686 9.9907 12.8533 10.1117 12.9115C10.2326 12.9697 10.3655 13 10.5001 13C10.6347 13 10.7676 12.9697 10.8886 12.9115C11.0095 12.8533 11.1154 12.7686 11.1982 12.664Z" fill="#8F8F8F"/>
</svg>
