<svg width="21" height="22" viewBox="0 0 21 22" fill="none" xmlns="http://www.w3.org/2000/svg">
<path d="M6.3 4.5V2.4C6.3 2.0287 6.4475 1.6726 6.71005 1.41005C6.9726 1.1475 7.3287 1 7.7 1H13.3C13.6713 1 14.0274 1.1475 14.2899 1.41005C14.5525 1.6726 14.7 2.0287 14.7 2.4V4.5M0 5.2H21M2.1 5.2V19.2C2.1 19.5713 2.2475 19.9274 2.51005 20.1899C2.7726 20.4525 3.1287 20.6 3.5 20.6H17.5C17.8713 20.6 18.2274 20.4525 18.4899 20.1899C18.7525 19.9274 18.9 19.5713 18.9 19.2V5.2M10.5 10.1V17.1M6.3 12.9V17.1M14.7 12.9V17.1" stroke="#151515" stroke-width="1.5"/>
</svg>
