<svg width="20" height="20" viewBox="0 0 20 20" fill="none" xmlns="http://www.w3.org/2000/svg">
<g clip-path="url(#clip0_335_2404)">
<path d="M1.66675 5.00033H18.3334M8.33341 9.16699V13.3337M11.6667 9.16699V13.3337M3.33341 5.00033H16.6667L15.3501 16.8503C15.3049 17.2581 15.111 17.635 14.8053 17.9087C14.4996 18.1824 14.1037 18.3337 13.6934 18.3337H6.30675C5.89644 18.3337 5.50055 18.1824 5.19487 17.9087C4.88919 17.635 4.69521 17.2581 4.65008 16.8503L3.33341 5.00033ZM6.12091 2.62283C6.25571 2.33697 6.469 2.09532 6.73592 1.92608C7.00283 1.75685 7.31237 1.66699 7.62841 1.66699H12.3717C12.6879 1.66683 12.9976 1.75661 13.2647 1.92586C13.5318 2.09511 13.7452 2.33684 13.8801 2.62283L15.0001 5.00033H5.00008L6.12091 2.62283V2.62283Z" stroke="#868686" stroke-width="2" stroke-linecap="round" stroke-linejoin="round"/>
</g>
<defs>
<clipPath id="clip0_335_2404">
<rect width="20" height="20" fill="white"/>
</clipPath>
</defs>
</svg>
