<svg width="19" height="19" viewBox="0 0 19 19" fill="none" xmlns="http://www.w3.org/2000/svg">
<path d="M9.12329 0C8.13438 0 7.16769 0.293245 6.34544 0.842652C5.52319 1.39206 4.88233 2.17295 4.50389 3.08658C4.12546 4.00021 4.02644 5.00555 4.21936 5.97545C4.41229 6.94536 4.88849 7.83627 5.58776 8.53553C6.28702 9.2348 7.17793 9.711 8.14784 9.90393C9.11774 10.0969 10.1231 9.99784 11.0367 9.6194C11.9503 9.24096 12.7312 8.6001 13.2806 7.77785C13.83 6.95561 14.1233 5.98891 14.1233 5C14.1233 3.67392 13.5965 2.40215 12.6588 1.46447C11.7211 0.526784 10.4494 0 9.12329 0ZM9.12329 8C8.52995 8 7.94993 7.82405 7.45658 7.49441C6.96323 7.16476 6.57871 6.69623 6.35165 6.14805C6.12459 5.59987 6.06518 4.99667 6.18093 4.41473C6.29669 3.83279 6.58241 3.29824 7.00197 2.87868C7.42153 2.45912 7.95608 2.1734 8.53802 2.05764C9.11996 1.94189 9.72316 2.0013 10.2713 2.22836C10.8195 2.45542 11.2881 2.83994 11.6177 3.33329C11.9473 3.82664 12.1233 4.40666 12.1233 5C12.1233 5.79565 11.8072 6.55871 11.2446 7.12132C10.682 7.68393 9.91894 8 9.12329 8ZM18.1233 19V18C18.1233 16.1435 17.3858 14.363 16.073 13.0503C14.7603 11.7375 12.9798 11 11.1233 11H7.12329C5.26678 11 3.4863 11.7375 2.17354 13.0503C0.860789 14.363 0.123291 16.1435 0.123291 18V19H2.12329V18C2.12329 16.6739 2.65008 15.4021 3.58776 14.4645C4.52544 13.5268 5.79721 13 7.12329 13H11.1233C12.4494 13 13.7211 13.5268 14.6588 14.4645C15.5965 15.4021 16.1233 16.6739 16.1233 18V19H18.1233Z" fill="#868686"/>
</svg>
