<svg width="11" height="11" viewBox="0 0 11 11" fill="none" xmlns="http://www.w3.org/2000/svg">
<path d="M6.47245 5.50015L9.42527 2.54734C9.55427 2.41833 9.62674 2.24337 9.62674 2.06093C9.62674 1.87849 9.55427 1.70353 9.42527 1.57452C9.29626 1.44552 9.1213 1.37305 8.93886 1.37305C8.75642 1.37305 8.58146 1.44552 8.45245 1.57452L5.49964 4.52734L2.54683 1.57796C2.41531 1.46533 2.24613 1.40648 2.0731 1.41316C1.90008 1.41984 1.73594 1.49157 1.6135 1.61401C1.49106 1.73645 1.41933 1.90058 1.41265 2.07361C1.40597 2.24664 1.46482 2.41582 1.57745 2.54734L4.52683 5.50015L1.57745 8.45296C1.44845 8.58196 1.37598 8.75693 1.37598 8.93937C1.37598 9.1218 1.44845 9.29677 1.57745 9.42577C1.70646 9.55478 1.88142 9.62725 2.06386 9.62725C2.2463 9.62725 2.42126 9.55478 2.55027 9.42577L5.49964 6.47296L8.45245 9.42577C8.58146 9.55478 8.75642 9.62725 8.93886 9.62725C9.1213 9.62725 9.29626 9.55478 9.42527 9.42577C9.55427 9.29677 9.62674 9.1218 9.62674 8.93937C9.62674 8.75693 9.55427 8.58196 9.42527 8.45296L6.47245 5.50015Z" fill="white"/>
</svg>
