<svg width="204" height="161" viewBox="0 0 204 161" fill="none" xmlns="http://www.w3.org/2000/svg">
<path d="M196.714 0H7.28571C3.2558 0 0 3.27031 0 7.31818V153.682C0 157.73 3.2558 161 7.28571 161H196.714C200.744 161 204 157.73 204 153.682V7.31818C204 3.27031 200.744 0 196.714 0ZM62.3839 32.9318C70.421 32.9318 76.9554 39.4953 76.9554 47.5682C76.9554 55.641 70.421 62.2045 62.3839 62.2045C54.3469 62.2045 47.8125 55.641 47.8125 47.5682C47.8125 39.4953 54.3469 32.9318 62.3839 32.9318ZM179.388 132.894C179.056 133.173 178.637 133.327 178.204 133.328H25.7732C24.7714 133.328 23.9518 132.505 23.9518 131.499C23.9518 131.064 24.1112 130.652 24.3844 130.309L63.158 84.1133C63.7955 83.3358 64.9567 83.2443 65.7308 83.8847C65.7991 83.9533 65.8902 84.0219 65.9585 84.1133L88.5897 111.099L124.586 68.2192C125.223 67.4416 126.384 67.3501 127.158 67.9905C127.227 68.0591 127.318 68.1277 127.386 68.2192L179.661 130.332C180.253 131.087 180.162 132.253 179.388 132.894Z" fill="black" fill-opacity="0.1"/>
</svg>
